# xmcd
#
# Track frame offsets:
#	187
#	11715
#	21580
#	33775
#	47415
#	58120
#	70137
#	80547
#	90825
#	102752
#	112027
#	122635
#	133310
#	146075
#	159640
#	169697
#	180642
#	190285
#	201125
#	212467
#	224587
#	237290
#	248780
#	259712
#	269812
#
# Disc length: 3633 seconds
# Revision: 0
# Processed by: cddbd v1.5.2PL0 Copyright (c) Steve Scherf et al.
# Submitted via: dBpowerAMP V12.0
#
DISCID=6f0e2f19
DTITLE=Various Artist - Hillbilly Music... Thank God! Volume 1
DYEAR=1989
DGENRE=Country
TTITLE0=Hank Thompson and His Brazos Valley Boys - How Cold Hearted Can You Get
TTITLE1=Speedy West and Jimmy Bryant - Stratosphere Boogie
TTITLE2=Merle Travis - Nine Pound Hammer
TTITLE3=Merle Travis - Merles's Boogie Woogie
TTITLE4=The Louvin Brothers - You're Learning
TTITLE5=Jean Shepard and Speedy West - Twice the Lovin' (In Half the Time)
TTITLE6=Faron Young - Live Fast, Love Hard, Die Young
TTITLE7=Jean Shepard and Speedy West - Yearning, Burning Heart
TTITLE8=Tennessee Ernie Ford and Ella Mae Morse With Cliffie Stone's Orchestra - Hog-Tied Over You
TTITLE9=Skeets McDonald - You Oughta See Grandma Rock
TTITLE10=Big Bill Lister - There's a Tear in My Beer
TTITLE11=The Milo Twins - Johnson to Jones
TTITLE12=Foy Willing - Texas Blues
TTITLE13=Tex Ritter - Fort Worth Jail
TTITLE14=Jimmy Lee - I'm Diggin' a Hole to Bury My Heart
TTITLE15=Gene O'Quin - It's No Use Talkin' Baby (I'm Through)
TTITLE16=Farmer Boys - Flash, Crash and Thunder
TTITLE17=Jean Shepard - Two Whoops and a Holler
TTITLE18=The Louvin Brothers - I Wish It Had Been a Dream
TTITLE19=The Louvin Brothers - The Great Atomic Power
TTITLE20=Red Simpson - Roll, Truck, Roll
TTITLE21=Rose Maddox - Take Me Back Again
TTITLE22=Buck Owens and Rose Maddox - Mental Cruelty
TTITLE23=Buck Owens - You're for Me
TTITLE24=Ken Nelson and Gene O'Quin - Mystery Track
EXTD=
EXTT0=
EXTT1=
EXTT2=
EXTT3=
EXTT4=
EXTT5=
EXTT6=
EXTT7=
EXTT8=
EXTT9=
EXTT10=
EXTT11=
EXTT12=
EXTT13=
EXTT14=
EXTT15=
EXTT16=
EXTT17=
EXTT18=
EXTT19=
EXTT20=
EXTT21=
EXTT22=
EXTT23=
EXTT24=
PLAYORDER=
